<svg width="64" height="64" viewBox="0 0 64 64" fill="none" xmlns="http://www.w3.org/2000/svg">
<rect width="64" height="64" rx="24" fill="#010826"/>
<path d="M39.9201 21.2213C42.7822 21.2213 45.0259 21.8762 46.651 23.186C48.3004 24.4716 49.1253 26.2423 49.1253 28.4981C49.1253 30.4628 48.4947 32.0759 47.2334 33.3372C45.9721 34.5742 44.2256 35.3383 41.994 35.6294L51.6358 46.69H50.6534L41.0844 35.7384C40.8903 35.7627 40.6962 35.7749 40.5022 35.7749H35.6133V35.0473H39.9201C42.5882 35.0473 44.6621 34.4649 46.1417 33.3007C47.6455 32.1364 48.3976 30.5356 48.3977 28.4981C48.3977 26.4606 47.6455 24.8596 46.1417 23.6954C44.6621 22.5311 42.5882 21.949 39.9201 21.949H35.6133V21.2213H39.9201Z" fill="#0171FC"/>
<path d="M49.1253 28.4981C49.1253 26.2423 48.3004 24.4716 46.651 23.186C45.0259 21.8762 42.7822 21.2213 39.9201 21.2213V20.7229C42.8541 20.7229 45.2221 21.3942 46.9638 22.7978C48.7408 24.1857 49.6237 26.1054 49.6237 28.4981C49.6237 30.5803 48.9505 32.3249 47.5858 33.6896L47.5824 33.693C46.4058 34.8469 44.8539 35.5998 42.9578 35.9762L52.7315 47.1884H50.4271L40.8772 36.2587C40.7524 36.2679 40.6274 36.2733 40.5022 36.2733H35.1149V34.5489H39.9201V35.0473H35.6133V35.7749H40.5022C40.6962 35.7749 40.8903 35.7627 41.0844 35.7384L50.6534 46.69H51.6358L41.994 35.6294C44.2256 35.3383 45.9721 34.5742 47.2334 33.3372C48.4947 32.0759 49.1253 30.4628 49.1253 28.4981ZM47.8992 28.4981C47.8992 26.6022 47.2087 25.1518 45.8365 24.0894L45.8336 24.0869C44.472 23.0155 42.522 22.4474 39.9201 22.4474H35.1149V20.7229H39.9201V21.2213H35.6133V21.949H39.9201C42.5882 21.949 44.6621 22.5311 46.1417 23.6954C47.6455 24.8596 48.3977 26.4606 48.3977 28.4981C48.3976 30.5356 47.6455 32.1364 46.1417 33.3007C44.6621 34.4649 42.5882 35.0473 39.9201 35.0473V34.5489C42.522 34.5489 44.4719 33.9805 45.8336 32.9091L45.8365 32.9067C47.1659 31.8775 47.8555 30.4843 47.8973 28.6746L47.8992 28.4981Z" fill="#0171FC"/>
<path d="M25.4099 47.4351C23.4452 47.4351 21.6988 47.0712 20.1706 46.3436C18.6425 45.6159 17.4176 44.5972 16.4959 43.2873C15.5984 41.9775 15.0405 40.4615 14.8222 38.7394H15.5135C15.7561 40.3403 16.3018 41.7471 17.1508 42.9599C17.9997 44.1484 19.1276 45.0701 20.5345 45.7251C21.9413 46.38 23.5665 46.7074 25.4099 46.7074C28.0538 46.7074 30.1034 46.1859 31.5588 45.1429C33.0384 44.0757 33.7782 42.5839 33.7782 40.6677C33.7782 39.2609 33.3779 38.1451 32.5775 37.3204C31.7771 36.4957 30.7704 35.9014 29.5577 35.5376C28.3449 35.1495 26.8046 34.7978 24.9369 34.4825H24.9005C22.9358 34.1671 21.3228 33.8154 20.0615 33.4273C18.8002 33.0392 17.7208 32.4086 16.8233 31.5354C15.9501 30.6622 15.5135 29.4494 15.5135 27.897C15.5135 26.4902 15.8895 25.2531 16.6414 24.1859C17.3934 23.1186 18.4364 22.306 19.7704 21.7482C21.1287 21.166 22.6933 20.8749 24.4639 20.8749C26.3074 20.8749 27.9325 21.2267 29.3394 21.9301C30.7462 22.6092 31.8741 23.5916 32.723 24.8772C33.5963 26.1627 34.1178 27.6787 34.2875 29.4251H33.5599C33.2688 26.9753 32.3107 25.0591 30.6856 23.6765C29.0847 22.2939 27.0108 21.6026 24.4639 21.6026C22.8388 21.6026 21.4077 21.8573 20.1706 22.3667C18.9336 22.876 17.9634 23.6159 17.2599 24.5861C16.5808 25.5321 16.2412 26.6357 16.2412 27.897C16.2412 29.2068 16.6172 30.2377 17.3691 30.9896C18.121 31.7416 19.0549 32.2994 20.1706 32.6633C21.3107 33.0029 22.7781 33.3303 24.5731 33.6456C24.6216 33.6699 24.6822 33.682 24.755 33.682C24.8278 33.682 24.8884 33.6942 24.9369 33.7184C24.9854 33.7427 25.0339 33.7548 25.0825 33.7548C25.131 33.7548 25.1795 33.7669 25.228 33.7912C27.2655 34.155 28.8906 34.5431 30.1034 34.9555C31.3405 35.3436 32.3835 35.9985 33.2324 36.9202C34.0814 37.8176 34.5058 39.0668 34.5058 40.6677C34.5058 42.0988 34.142 43.3237 33.4143 44.3425C32.6867 45.337 31.6437 46.101 30.2853 46.6346C28.927 47.1683 27.3019 47.4351 25.4099 47.4351Z" fill="#0171FC"/>
<path d="M15.9422 38.2408L16.0062 38.6648C16.2383 40.1969 16.7582 41.5299 17.5591 42.674C18.3546 43.7863 19.4123 44.6531 20.7447 45.2733C22.0744 45.8923 23.6257 46.209 25.41 46.209L25.4099 46.7074L25.2377 46.7065C23.4651 46.6866 21.8973 46.3595 20.5345 45.7251C19.1276 45.0701 17.9997 44.1484 17.1508 42.9599C16.3018 41.7471 15.7561 40.3403 15.5135 38.7394H14.8222C15.0405 40.4615 15.5984 41.9775 16.4959 43.2873C17.4176 44.5972 18.6425 45.6159 20.1706 46.3436C21.651 47.0485 23.3362 47.4121 25.2262 47.4341L25.4099 47.4351C27.2427 47.4351 28.8252 47.1847 30.1573 46.6838L30.2853 46.6346C31.6012 46.1177 32.6211 45.3844 33.3451 44.4349L33.4143 44.3425C34.1192 43.3556 34.4827 42.1751 34.5047 40.8013L34.5058 40.6677C34.5058 39.0668 34.0814 37.8176 33.2324 36.9202C32.4365 36.0561 31.47 35.4265 30.333 35.0314L30.1034 34.9555C28.8906 34.5431 27.2655 34.155 25.228 33.7912C25.1795 33.7669 25.131 33.7548 25.0825 33.7548C25.0339 33.7548 24.9854 33.7427 24.9369 33.7184C24.9006 33.7002 24.8574 33.6889 24.8074 33.6844L24.755 33.682C24.7004 33.682 24.6527 33.6751 24.6118 33.6615L24.5731 33.6456C22.7781 33.3303 21.3107 33.0029 20.1706 32.6633C19.0549 32.2994 18.121 31.7416 17.3691 30.9896C16.6407 30.2612 16.265 29.2709 16.2423 28.0189L16.2412 27.897C16.2412 26.6357 16.5808 25.5321 17.2599 24.5861C17.9194 23.6765 18.8134 22.9694 19.9419 22.4648L20.1706 22.3667C21.4077 21.8573 22.8388 21.6026 24.4639 21.6026L24.7013 21.6045C27.1399 21.6464 29.1347 22.3371 30.6856 23.6765C32.2599 25.0159 33.2082 26.8561 33.5305 29.197L33.5599 29.4251H34.2875C34.1178 27.6787 33.5963 26.1627 32.723 24.8772C31.9006 23.6318 30.8164 22.6709 29.4705 21.9947L29.3394 21.9301C27.9765 21.2486 26.4087 20.8972 24.6361 20.8759L24.4639 20.8749C22.6933 20.8749 21.1287 21.166 19.7704 21.7482C18.4364 22.306 17.3934 23.1186 16.6414 24.1859L16.572 24.2864C15.8664 25.3306 15.5135 26.5342 15.5135 27.897L15.5148 28.0415C15.5413 29.5248 15.9774 30.6895 16.8233 31.5354C17.7208 32.4086 18.8002 33.0392 20.0615 33.4273C21.244 33.7912 22.7356 34.1231 24.5363 34.423L24.9005 34.4825H24.9369C26.8046 34.7978 28.3449 35.1495 29.5577 35.5376C30.7704 35.9014 31.7771 36.4957 32.5775 37.3204C33.3779 38.1451 33.7782 39.2609 33.7782 40.6677L33.7761 40.8461C33.7313 42.6767 32.9921 44.109 31.5588 45.1429C30.1034 46.1859 28.0538 46.7074 25.4099 46.7074L25.41 46.209C27.9961 46.209 29.9283 45.6977 31.2672 44.7386L31.3911 44.6469C32.6507 43.6866 33.2799 42.378 33.2799 40.6677C33.2799 39.3597 32.9106 38.3792 32.2198 37.6675C31.4844 36.9099 30.5543 36.357 29.4145 36.015L29.4101 36.0136L29.4058 36.0124C28.232 35.6368 26.73 35.2921 24.8936 34.9808H24.8607L24.8215 34.9747C22.8442 34.6573 21.2064 34.301 19.9148 33.9036C18.5823 33.4936 17.433 32.8239 16.4759 31.8927L16.4732 31.8903L16.471 31.8879C15.4817 30.8986 15.0152 29.5457 15.0152 27.8969C15.0152 26.3958 15.4182 25.0566 16.234 23.8987C17.0203 22.7827 18.0973 21.9329 19.4466 21.3444L19.578 21.2884C21.0085 20.6761 22.6406 20.3765 24.464 20.3765C26.3688 20.3765 28.0702 20.7399 29.5557 21.4812C31.0403 22.1979 32.2365 23.2382 33.1353 24.5972L33.221 24.7257C34.0949 26.0604 34.6123 27.6151 34.7836 29.3768L34.8367 29.9234H33.1171L33.065 29.4839C32.7863 27.138 31.8772 25.3447 30.3627 24.0562L30.3597 24.0538C28.867 22.7646 26.9168 22.101 24.464 22.101C22.8904 22.101 21.5259 22.3476 20.3604 22.8274C19.1986 23.3058 18.3065 23.9918 17.6635 24.8788L17.6633 24.8785C17.0509 25.7322 16.7397 26.7317 16.7397 27.8969C16.7397 29.1071 17.0837 29.9995 17.7214 30.6372C18.4118 31.3276 19.275 31.8466 20.323 32.1887C21.2967 32.4781 22.523 32.7612 24.0058 33.0368L24.6592 33.1548L24.731 33.1672L24.7639 33.1835C24.8768 33.1844 25.0035 33.2027 25.1274 33.2577C25.2141 33.2627 25.2961 33.2816 25.3723 33.3108C27.3928 33.6734 29.025 34.0628 30.2595 34.4821C31.5716 34.895 32.6865 35.5938 33.5943 36.5777C34.5543 37.5926 35.0043 38.9784 35.0043 40.6677C35.0043 42.1872 34.6163 43.517 33.8199 44.6321L33.8182 44.6345L33.8165 44.6367C33.0234 45.7205 31.8974 46.5368 30.4676 47.0985C29.0368 47.6606 27.3467 47.9335 25.41 47.9335C23.383 47.9335 21.5615 47.5579 19.9565 46.7936C18.3555 46.0312 17.0621 44.9581 16.0882 43.5742L16.0865 43.5717L16.0848 43.569C15.1385 42.1879 14.555 40.5953 14.3277 38.802L14.2567 38.2408H15.9422Z" fill="#0171FC"/>
<path d="M34.6165 30.1927C34.6165 29.7798 34.2818 29.4451 33.8689 29.4451C33.456 29.4451 33.1213 29.7798 33.1213 30.1927C33.1213 30.6056 33.456 30.9403 33.8689 30.9403C34.2818 30.9403 34.6165 30.6056 34.6165 30.1927ZM35.1149 30.1927C35.1149 30.8808 34.557 31.4387 33.8689 31.4387C33.1807 31.4387 32.6229 30.8808 32.6229 30.1927C32.6229 29.5045 33.1807 28.9467 33.8689 28.9467C34.557 28.9467 35.1149 29.5045 35.1149 30.1927Z" fill="#0171FC"/>
<path d="M35.1149 30.1927C35.1149 29.5045 34.557 28.9467 33.8689 28.9467C33.1807 28.9467 32.6229 29.5045 32.6229 30.1927C32.6229 30.8808 33.1807 31.4387 33.8689 31.4387C34.557 31.4387 35.1149 30.8808 35.1149 30.1927ZM34.1181 30.1927C34.1181 30.055 34.0065 29.9435 33.8689 29.9435C33.7312 29.9435 33.6197 30.055 33.6197 30.1927C33.6197 30.3303 33.7312 30.4419 33.8689 30.4419C34.0065 30.4419 34.1181 30.3303 34.1181 30.1927ZM34.6165 30.1927C34.6165 30.6056 34.2818 30.9403 33.8689 30.9403C33.456 30.9403 33.1213 30.6056 33.1213 30.1927C33.1213 29.7798 33.456 29.4451 33.8689 29.4451C34.2818 29.4451 34.6165 29.7798 34.6165 30.1927ZM35.6133 30.1927C35.6133 31.1561 34.8323 31.9371 33.8689 31.9371C32.9055 31.9371 32.1245 31.1561 32.1245 30.1927C32.1245 29.2293 32.9055 28.4482 33.8689 28.4482C34.8323 28.4482 35.6133 29.2293 35.6133 30.1927Z" fill="#0171FC"/>
<path d="M18.6674 21.2213C18.6674 20.2579 17.8864 19.4769 16.923 19.4769C15.9596 19.4769 15.1786 20.2579 15.1786 21.2213C15.1786 22.1848 15.9596 22.9658 16.923 22.9658C17.8864 22.9658 18.6674 22.1848 18.6674 21.2213ZM19.1659 21.2213C19.1659 22.46 18.1617 23.4642 16.923 23.4642C15.6843 23.4642 14.6802 22.46 14.6802 21.2213C14.6802 19.9827 15.6843 18.9785 16.923 18.9785C18.1617 18.9785 19.1659 19.9827 19.1659 21.2213Z" fill="#0171FC"/>
<path d="M19.1659 21.2213C19.1659 19.9827 18.1617 18.9785 16.923 18.9785C15.6843 18.9785 14.6802 19.9827 14.6802 21.2213C14.6802 22.46 15.6843 23.4642 16.923 23.4642C18.1617 23.4642 19.1659 22.46 19.1659 21.2213ZM18.169 21.2213C18.169 20.5332 17.6112 19.9753 16.923 19.9753C16.2349 19.9753 15.677 20.5332 15.677 21.2213C15.677 21.9095 16.2349 22.4674 16.923 22.4674C17.6112 22.4674 18.169 21.9095 18.169 21.2213ZM18.6674 21.2213C18.6674 22.1848 17.8864 22.9658 16.923 22.9658C15.9596 22.9658 15.1786 22.1848 15.1786 21.2213C15.1786 20.2579 15.9596 19.4769 16.923 19.4769C17.8864 19.4769 18.6674 20.2579 18.6674 21.2213ZM19.6643 21.2213C19.6643 22.7353 18.437 23.9626 16.923 23.9626C15.4091 23.9626 14.1818 22.7353 14.1818 21.2213C14.1818 19.7074 15.4091 18.4801 16.923 18.4801C18.437 18.4801 19.6643 19.7074 19.6643 21.2213Z" fill="#0171FC"/>
<path d="M35.6133 21.2213C35.6133 20.2579 34.8323 19.4769 33.8689 19.4769C32.9055 19.4769 32.1245 20.2579 32.1245 21.2213C32.1245 22.1848 32.9055 22.9658 33.8689 22.9658C34.8323 22.9658 35.6133 22.1848 35.6133 21.2213ZM36.1117 21.2213C36.1117 22.46 35.1076 23.4642 33.8689 23.4642C32.6302 23.4642 31.626 22.46 31.626 21.2213C31.626 19.9827 32.6302 18.9785 33.8689 18.9785C35.1076 18.9785 36.1117 19.9827 36.1117 21.2213Z" fill="#0171FC"/>
<path d="M36.1117 21.2213C36.1117 19.9827 35.1076 18.9785 33.8689 18.9785C32.6302 18.9785 31.626 19.9827 31.626 21.2213C31.626 22.46 32.6302 23.4642 33.8689 23.4642C35.1076 23.4642 36.1117 22.46 36.1117 21.2213ZM35.1149 21.2213C35.1149 20.5332 34.557 19.9753 33.8689 19.9753C33.1807 19.9753 32.6229 20.5332 32.6229 21.2213C32.6229 21.9095 33.1807 22.4674 33.8689 22.4674C34.557 22.4674 35.1149 21.9095 35.1149 21.2213ZM35.6133 21.2213C35.6133 22.1848 34.8323 22.9658 33.8689 22.9658C32.9055 22.9658 32.1245 22.1848 32.1245 21.2213C32.1245 20.2579 32.9055 19.4769 33.8689 19.4769C34.8323 19.4769 35.6133 20.2579 35.6133 21.2213ZM36.6101 21.2213C36.6101 22.7353 35.3828 23.9626 33.8689 23.9626C32.3549 23.9626 31.1276 22.7353 31.1276 21.2213C31.1276 19.7074 32.3549 18.4801 33.8689 18.4801C35.3828 18.4801 36.6101 19.7074 36.6101 21.2213Z" fill="#0171FC"/>
<path d="M35.3641 35.426C35.3641 35.0131 35.0294 34.6783 34.6165 34.6783C34.2036 34.6783 33.8689 35.0131 33.8689 35.426C33.8689 35.8388 34.2036 36.1736 34.6165 36.1736C35.0294 36.1736 35.3641 35.8388 35.3641 35.426ZM35.8625 35.426C35.8625 36.1141 35.3046 36.672 34.6165 36.672C33.9283 36.672 33.3705 36.1141 33.3705 35.426C33.3705 34.7378 33.9283 34.1799 34.6165 34.1799C35.3046 34.1799 35.8625 34.7378 35.8625 35.426Z" fill="white"/>
<path d="M35.8625 35.426C35.8625 34.7378 35.3046 34.1799 34.6165 34.1799C33.9283 34.1799 33.3705 34.7378 33.3705 35.426C33.3705 36.1141 33.9283 36.672 34.6165 36.672C35.3046 36.672 35.8625 36.1141 35.8625 35.426ZM34.8657 35.426C34.8657 35.2883 34.7541 35.1768 34.6165 35.1768C34.4789 35.1768 34.3673 35.2883 34.3673 35.426C34.3673 35.5636 34.4789 35.6752 34.6165 35.6752C34.7541 35.6752 34.8657 35.5636 34.8657 35.426ZM35.3641 35.426C35.3641 35.8388 35.0294 36.1736 34.6165 36.1736C34.2036 36.1736 33.8689 35.8388 33.8689 35.426C33.8689 35.0131 34.2036 34.6783 34.6165 34.6783C35.0294 34.6783 35.3641 35.0131 35.3641 35.426ZM36.3609 35.426C36.3609 36.3894 35.5799 37.1704 34.6165 37.1704C33.6531 37.1704 32.8721 36.3894 32.8721 35.426C32.8721 34.4625 33.6531 33.6815 34.6165 33.6815C35.5799 33.6815 36.3609 34.4625 36.3609 35.426Z" fill="white"/>
<path d="M52.8084 48.6338C52.8084 47.6703 52.0274 46.8893 51.0639 46.8893C50.1005 46.8893 49.3195 47.6703 49.3195 48.6338C49.3195 49.5972 50.1005 50.3782 51.0639 50.3782C52.0274 50.3782 52.8084 49.5972 52.8084 48.6338ZM53.3068 48.6338C53.3068 49.8724 52.3026 50.8766 51.0639 50.8766C49.8253 50.8766 48.8211 49.8724 48.8211 48.6338C48.8211 47.3951 49.8253 46.3909 51.0639 46.3909C52.3026 46.3909 53.3068 47.3951 53.3068 48.6338Z" fill="#0171FC"/>
<path d="M53.3068 48.6338C53.3068 47.3951 52.3026 46.3909 51.0639 46.3909C49.8253 46.3909 48.8211 47.3951 48.8211 48.6338C48.8211 49.8724 49.8253 50.8766 51.0639 50.8766C52.3026 50.8766 53.3068 49.8724 53.3068 48.6338ZM52.31 48.6338C52.31 47.9456 51.7521 47.3877 51.0639 47.3877C50.3758 47.3877 49.8179 47.9456 49.8179 48.6338C49.8179 49.3219 50.3758 49.8798 51.0639 49.8798C51.7521 49.8798 52.31 49.3219 52.31 48.6338ZM52.8084 48.6338C52.8084 49.5972 52.0274 50.3782 51.0639 50.3782C50.1005 50.3782 49.3195 49.5972 49.3195 48.6338C49.3195 47.6703 50.1005 46.8893 51.0639 46.8893C52.0274 46.8893 52.8084 47.6703 52.8084 48.6338ZM53.8052 48.6338C53.8052 50.1477 52.5779 51.375 51.0639 51.375C49.55 51.375 48.3227 50.1477 48.3227 48.6338C48.3227 47.1198 49.55 45.8925 51.0639 45.8925C52.5779 45.8925 53.8052 47.1198 53.8052 48.6338Z" fill="#0171FC"/>
<path d="M16.923 16.4865C16.923 14.9725 15.6957 13.7452 14.1818 13.7452C12.6678 13.7452 11.4405 14.9725 11.4405 16.4865C11.4405 18.0004 12.6678 19.2277 14.1818 19.2277C15.6957 19.2277 16.923 18.0004 16.923 16.4865ZM17.9198 16.4865C17.9198 18.5509 16.2462 20.2245 14.1818 20.2245C12.1173 20.2245 10.4437 18.5509 10.4437 16.4865C10.4437 14.422 12.1173 12.7484 14.1818 12.7484C16.2462 12.7484 17.9198 14.422 17.9198 16.4865Z" fill="white"/>
<path d="M17.9198 16.4865C17.9198 14.422 16.2462 12.7484 14.1818 12.7484C12.1173 12.7484 10.4437 14.422 10.4437 16.4865C10.4437 18.5509 12.1173 20.2245 14.1818 20.2245C16.2462 20.2245 17.9198 18.5509 17.9198 16.4865ZM16.4246 16.4865C16.4246 15.2478 15.4205 14.2436 14.1818 14.2436C12.9431 14.2436 11.9389 15.2478 11.9389 16.4865C11.9389 17.7251 12.9431 18.7293 14.1818 18.7293V19.2277C12.6678 19.2277 11.4405 18.0004 11.4405 16.4865C11.4405 14.9725 12.6678 13.7452 14.1818 13.7452C15.6957 13.7452 16.923 14.9725 16.923 16.4865C16.923 18.0004 15.6957 19.2277 14.1818 19.2277V18.7293C15.4205 18.7293 16.4246 17.7251 16.4246 16.4865ZM18.4182 16.4865C18.4182 18.8262 16.5215 20.7229 14.1818 20.7229C11.842 20.7229 9.94531 18.8262 9.94531 16.4865C9.94531 14.1467 11.842 12.25 14.1818 12.25C16.5215 12.25 18.4182 14.1467 18.4182 16.4865Z" fill="white"/>
<path d="M16.923 36.9212C16.923 35.9578 16.142 35.1768 15.1786 35.1768C14.2152 35.1768 13.4342 35.9578 13.4342 36.9212C13.4342 37.8846 14.2152 38.6656 15.1786 38.6656C16.142 38.6656 16.923 37.8846 16.923 36.9212ZM17.4214 36.9212C17.4214 38.1599 16.4173 39.164 15.1786 39.164C13.9399 39.164 12.9358 38.1599 12.9358 36.9212C12.9358 35.6825 13.9399 34.6783 15.1786 34.6783C16.4173 34.6783 17.4214 35.6825 17.4214 36.9212Z" fill="white"/>
<path d="M17.4214 36.9212C17.4214 35.6825 16.4173 34.6783 15.1786 34.6783C13.9399 34.6783 12.9358 35.6825 12.9358 36.9212C12.9358 38.1599 13.9399 39.164 15.1786 39.164C16.4173 39.164 17.4214 38.1599 17.4214 36.9212ZM16.4246 36.9212C16.4246 36.233 15.8667 35.6752 15.1786 35.6752C14.4904 35.6752 13.9326 36.233 13.9326 36.9212C13.9326 37.6093 14.4904 38.1672 15.1786 38.1672C15.8667 38.1672 16.4246 37.6093 16.4246 36.9212ZM16.923 36.9212C16.923 37.8846 16.142 38.6656 15.1786 38.6656C14.2152 38.6656 13.4342 37.8846 13.4342 36.9212C13.4342 35.9578 14.2152 35.1768 15.1786 35.1768C16.142 35.1768 16.923 35.9578 16.923 36.9212ZM17.9198 36.9212C17.9198 38.4351 16.6925 39.6624 15.1786 39.6624C13.6646 39.6624 12.4374 38.4351 12.4374 36.9212C12.4374 35.4072 13.6646 34.1799 15.1786 34.1799C16.6925 34.1799 17.9198 35.4072 17.9198 36.9212Z" fill="white"/>
<path d="M33.6446 36.0482L16.932 37.1697L16.8819 36.4237L33.5946 35.302L33.6446 36.0482Z" fill="white"/>
<path d="M33.9099 36.2801L16.7001 37.435L16.6166 36.1919L33.8265 35.0367L33.9099 36.2801ZM17.1473 36.6556L17.1638 36.9041L33.379 35.8161L33.3624 35.5673L17.1473 36.6556Z" fill="white"/>
</svg>
