<svg width="32" height="32" viewBox="0 0 32 32" fill="none" xmlns="http://www.w3.org/2000/svg">
<rect width="32" height="32" rx="12" fill="#010826"/>
<path d="M19.9601 10.6107C21.3911 10.6107 22.513 10.9381 23.3255 11.593C24.1502 12.2358 24.5627 13.1212 24.5627 14.2491C24.5627 15.2314 24.2473 16.0379 23.6167 16.6686C22.9861 17.2871 22.1128 17.6692 20.997 17.8147L25.8179 23.345H25.3267L20.5422 17.8692C20.4452 17.8813 20.3481 17.8875 20.2511 17.8875H17.8067V17.5236H19.9601C21.2941 17.5236 22.331 17.2325 23.0708 16.6503C23.8228 16.0682 24.1988 15.2678 24.1988 14.2491C24.1988 13.2303 23.8228 12.4298 23.0708 11.8477C22.331 11.2656 21.2941 10.9745 19.9601 10.9745H17.8067V10.6107H19.9601Z" fill="#0171FC"/>
<path d="M24.5627 14.2491C24.5627 13.1212 24.1502 12.2358 23.3255 11.593C22.513 10.9381 21.3911 10.6107 19.9601 10.6107V10.3615C21.427 10.3615 22.6111 10.6971 23.4819 11.3989C24.3704 12.0929 24.8119 13.0527 24.8119 14.2491C24.8119 15.2901 24.4752 16.1624 23.7929 16.8448L23.7912 16.8465C23.2029 17.4234 22.427 17.7999 21.4789 17.9881L26.3657 23.5942H25.2135L20.4386 18.1294C20.3762 18.1339 20.3137 18.1367 20.2511 18.1367H17.5574V17.2744H19.9601V17.5236H17.8067V17.8875H20.2511C20.3481 17.8875 20.4452 17.8813 20.5422 17.8692L25.3267 23.345H25.8179L20.997 17.8147C22.1128 17.6692 22.9861 17.2871 23.6167 16.6686C24.2473 16.0379 24.5627 15.2314 24.5627 14.2491ZM23.9496 14.2491C23.9496 13.3011 23.6044 12.5759 22.9183 12.0447L22.9168 12.0435C22.236 11.5078 21.261 11.2237 19.9601 11.2237H17.5574V10.3615H19.9601V10.6107H17.8067V10.9745H19.9601C21.2941 10.9745 22.331 11.2656 23.0708 11.8477C23.8228 12.4298 24.1988 13.2303 24.1988 14.2491C24.1988 15.2678 23.8228 16.0682 23.0708 16.6503C22.331 17.2325 21.2941 17.5236 19.9601 17.5236V17.2744C21.261 17.2744 22.236 16.9903 22.9168 16.4545L22.9183 16.4533C23.5829 15.9387 23.9277 15.2422 23.9487 14.3373L23.9496 14.2491Z" fill="#0171FC"/>
<path d="M12.705 23.7175C11.7226 23.7175 10.8494 23.5356 10.0853 23.1718C9.32126 22.8079 8.7088 22.2986 8.24794 21.6437C7.79921 20.9888 7.52027 20.2308 7.41112 19.3697H7.75676C7.87804 20.1701 8.15092 20.8735 8.5754 21.4799C8.99987 22.0742 9.56382 22.5351 10.2672 22.8625C10.9707 23.19 11.7832 23.3537 12.705 23.3537C14.0269 23.3537 15.0517 23.093 15.7794 22.5715C16.5192 22.0378 16.8891 21.292 16.8891 20.3339C16.8891 19.6304 16.689 19.0726 16.2888 18.6602C15.8885 18.2479 15.3852 17.9507 14.7788 17.7688C14.1724 17.5748 13.4023 17.3989 12.4685 17.2412H12.4503C11.4679 17.0836 10.6614 16.9077 10.0307 16.7137C9.40009 16.5196 8.8604 16.2043 8.41167 15.7677C7.97506 15.3311 7.75676 14.7247 7.75676 13.9485C7.75676 13.2451 7.94474 12.6266 8.32071 12.0929C8.69668 11.5593 9.21818 11.153 9.88521 10.8741C10.5644 10.583 11.3466 10.4375 12.232 10.4375C13.1537 10.4375 13.9663 10.6133 14.6697 10.965C15.3731 11.3046 15.937 11.7958 16.3615 12.4386C16.7981 13.0814 17.0589 13.8394 17.1438 14.7126H16.7799C16.6344 13.4876 16.1553 12.5295 15.3428 11.8382C14.5423 11.147 13.5054 10.8013 12.232 10.8013C11.4194 10.8013 10.7038 10.9287 10.0853 11.1833C9.4668 11.438 8.98168 11.8079 8.62997 12.293C8.29039 12.766 8.1206 13.3179 8.1206 13.9485C8.1206 14.6034 8.30858 15.1188 8.68455 15.4948C9.06051 15.8708 9.52744 16.1497 10.0853 16.3316C10.6553 16.5014 11.3891 16.6652 12.2865 16.8228C12.3108 16.8349 12.3411 16.841 12.3775 16.841C12.4139 16.841 12.4442 16.8471 12.4685 16.8592C12.4927 16.8713 12.517 16.8774 12.5412 16.8774C12.5655 16.8774 12.5897 16.8835 12.614 16.8956C13.6327 17.0775 14.4453 17.2716 15.0517 17.4777C15.6702 17.6718 16.1917 17.9992 16.6162 18.4601C17.0407 18.9088 17.2529 19.5334 17.2529 20.3339C17.2529 21.0494 17.071 21.6619 16.7072 22.1712C16.3433 22.6685 15.8218 23.0505 15.1427 23.3173C14.4635 23.5841 13.6509 23.7175 12.705 23.7175Z" fill="#0171FC"/>
<path d="M7.97109 19.1204L8.0031 19.3324C8.11917 20.0984 8.37912 20.7649 8.77955 21.337C9.1773 21.8931 9.70617 22.3265 10.3724 22.6367C11.0372 22.9462 11.8129 23.1045 12.705 23.1045L12.705 23.3537L12.6188 23.3532C11.7325 23.3433 10.9487 23.1797 10.2672 22.8625C9.56382 22.5351 8.99987 22.0742 8.5754 21.4799C8.15092 20.8735 7.87804 20.1701 7.75676 19.3697H7.41112C7.52027 20.2308 7.79921 20.9888 8.24794 21.6437C8.7088 22.2986 9.32126 22.8079 10.0853 23.1718C10.8255 23.5242 11.6681 23.706 12.6131 23.7171L12.705 23.7175C13.6214 23.7175 14.4126 23.5923 15.0786 23.3419L15.1427 23.3173C15.8006 23.0588 16.3105 22.6922 16.6725 22.2175L16.7072 22.1712C17.0596 21.6778 17.2413 21.0876 17.2524 20.4006L17.2529 20.3339C17.2529 19.5334 17.0407 18.9088 16.6162 18.4601C16.2183 18.028 15.735 17.7132 15.1665 17.5157L15.0517 17.4777C14.4453 17.2716 13.6327 17.0775 12.614 16.8956C12.5897 16.8835 12.5655 16.8774 12.5412 16.8774C12.517 16.8774 12.4927 16.8713 12.4685 16.8592C12.4503 16.8501 12.4287 16.8445 12.4037 16.8422L12.3775 16.841C12.3502 16.841 12.3263 16.8376 12.3059 16.8307L12.2865 16.8228C11.3891 16.6652 10.6553 16.5014 10.0853 16.3316C9.52744 16.1497 9.06051 15.8708 8.68455 15.4948C8.32033 15.1306 8.1325 14.6354 8.12113 14.0094L8.1206 13.9485C8.1206 13.3179 8.29039 12.766 8.62997 12.293C8.9597 11.8383 9.40671 11.4847 9.97093 11.2324L10.0853 11.1833C10.7038 10.9287 11.4194 10.8013 12.232 10.8013L12.3507 10.8023C13.57 10.8232 14.5673 11.1686 15.3428 11.8382C16.1299 12.5079 16.6041 13.428 16.7653 14.5985L16.7799 14.7126H17.1438C17.0589 13.8394 16.7981 13.0814 16.3615 12.4386C15.9503 11.8159 15.4082 11.3355 14.7352 10.9973L14.6697 10.965C13.9882 10.6243 13.2044 10.4486 12.318 10.438L12.232 10.4375C11.3466 10.4375 10.5644 10.583 9.88521 10.8741C9.21818 11.153 8.69668 11.5593 8.32071 12.0929L8.28601 12.1432C7.93318 12.6653 7.75677 13.2671 7.75676 13.9485L7.75742 14.0207C7.77063 14.7624 7.9887 15.3447 8.41167 15.7677C8.8604 16.2043 9.40009 16.5196 10.0307 16.7137C10.622 16.8956 11.3678 17.0615 12.2682 17.2115L12.4503 17.2412H12.4685C13.4023 17.3989 14.1724 17.5748 14.7788 17.7688C15.3852 17.9507 15.8885 18.2479 16.2888 18.6602C16.689 19.0726 16.8891 19.6304 16.8891 20.3339L16.888 20.423C16.8657 21.3383 16.4961 22.0545 15.7794 22.5715C15.0517 23.093 14.0269 23.3537 12.705 23.3537L12.705 23.1045C13.9981 23.1045 14.9641 22.8489 15.6336 22.3693L15.6956 22.3234C16.3253 21.8433 16.6399 21.189 16.6399 20.3338C16.6399 19.6799 16.4553 19.1896 16.1099 18.8337C15.7422 18.4549 15.2772 18.1785 14.7073 18.0075L14.7051 18.0068L14.7029 18.0062C14.116 17.8184 13.365 17.646 12.4468 17.4904H12.4304L12.4108 17.4873C11.4221 17.3287 10.6032 17.1505 9.95742 16.9518C9.29117 16.7468 8.71649 16.412 8.23794 15.9464L8.2366 15.9451L8.23551 15.9439C7.74087 15.4493 7.50761 14.7728 7.50761 13.9485C7.50761 13.1979 7.7091 12.5283 8.11699 11.9494C8.51014 11.3914 9.04865 10.9664 9.72331 10.6722L9.78902 10.6442C10.5042 10.338 11.3203 10.1883 12.232 10.1883C13.1844 10.1883 14.0351 10.3699 14.7778 10.7406C15.5201 11.0989 16.1183 11.6191 16.5677 12.2986L16.6105 12.3628C17.0474 13.0302 17.3062 13.8075 17.3918 14.6884L17.4183 14.9617H16.5585L16.5325 14.742C16.3931 13.569 15.9386 12.6723 15.1813 12.0281L15.1799 12.0269C14.4335 11.3823 13.4584 11.0505 12.232 11.0505C11.4452 11.0505 10.7629 11.1738 10.1802 11.4137C9.59932 11.6529 9.15325 11.9959 8.83175 12.4394L8.83163 12.4393C8.52547 12.8661 8.36985 13.3658 8.36984 13.9485C8.36984 14.5535 8.54185 14.9997 8.86071 15.3186C9.2059 15.6638 9.63748 15.9233 10.1615 16.0943C10.6483 16.2391 11.2615 16.3806 12.0029 16.5184L12.3296 16.5774L12.3655 16.5836L12.3819 16.5918C12.4384 16.5922 12.5018 16.6014 12.5637 16.6289C12.6071 16.6313 12.6481 16.6408 12.6861 16.6554C13.6964 16.8367 14.5125 17.0314 15.1297 17.2411C15.7858 17.4475 16.3433 17.7969 16.7971 18.2889C17.2772 18.7963 17.5022 19.4892 17.5022 20.3338C17.5022 21.0936 17.3081 21.7585 16.9099 22.316L16.9091 22.3172L16.9082 22.3183C16.5117 22.8602 15.9487 23.2684 15.2338 23.5493C14.5184 23.8303 13.6733 23.9668 12.705 23.9668C11.6915 23.9668 10.7807 23.7789 9.97823 23.3968C9.17775 23.0156 8.53104 22.479 8.0441 21.7871L8.04325 21.7859L8.0424 21.7845C7.56924 21.094 7.27752 20.2977 7.16386 19.401L7.12833 19.1204H7.97109Z" fill="#0171FC"/>
<path d="M17.3082 15.0963C17.3082 14.8899 17.1409 14.7225 16.9344 14.7225C16.728 14.7225 16.5606 14.8899 16.5606 15.0963C16.5606 15.3028 16.728 15.4701 16.9344 15.4701C17.1409 15.4701 17.3082 15.3028 17.3082 15.0963ZM17.5574 15.0963C17.5574 15.4404 17.2785 15.7193 16.9344 15.7193C16.5904 15.7193 16.3114 15.4404 16.3114 15.0963C16.3114 14.7523 16.5904 14.4733 16.9344 14.4733C17.2785 14.4733 17.5574 14.7523 17.5574 15.0963Z" fill="#0171FC"/>
<path d="M17.5574 15.0963C17.5574 14.7523 17.2785 14.4733 16.9344 14.4733C16.5904 14.4733 16.3114 14.7523 16.3114 15.0963C16.3114 15.4404 16.5904 15.7193 16.9344 15.7193C17.2785 15.7193 17.5574 15.4404 17.5574 15.0963ZM17.059 15.0963C17.059 15.0275 17.0033 14.9717 16.9344 14.9717C16.8656 14.9717 16.8098 15.0275 16.8098 15.0963C16.8098 15.1652 16.8656 15.2209 16.9344 15.2209C17.0033 15.2209 17.059 15.1652 17.059 15.0963ZM17.3082 15.0963C17.3082 15.3028 17.1409 15.4701 16.9344 15.4701C16.728 15.4701 16.5606 15.3028 16.5606 15.0963C16.5606 14.8899 16.728 14.7225 16.9344 14.7225C17.1409 14.7225 17.3082 14.8899 17.3082 15.0963ZM17.8067 15.0963C17.8067 15.578 17.4161 15.9686 16.9344 15.9686C16.4527 15.9686 16.0622 15.578 16.0622 15.0963C16.0622 14.6146 16.4527 14.2241 16.9344 14.2241C17.4161 14.2241 17.8067 14.6146 17.8067 15.0963Z" fill="#0171FC"/>
<path d="M9.33372 10.6107C9.33372 10.129 8.94322 9.73846 8.46151 9.73846C7.9798 9.73846 7.5893 10.129 7.5893 10.6107C7.5893 11.0924 7.9798 11.4829 8.46151 11.4829C8.94322 11.4829 9.33372 11.0924 9.33372 10.6107ZM9.58293 10.6107C9.58293 11.23 9.08085 11.7321 8.46151 11.7321C7.84217 11.7321 7.34009 11.23 7.34009 10.6107C7.34009 9.99133 7.84217 9.48925 8.46151 9.48925C9.08085 9.48925 9.58293 9.99133 9.58293 10.6107Z" fill="#0171FC"/>
<path d="M9.58293 10.6107C9.58293 9.99133 9.08085 9.48925 8.46151 9.48925C7.84217 9.48925 7.34009 9.99133 7.34009 10.6107C7.34009 11.23 7.84217 11.7321 8.46151 11.7321C9.08085 11.7321 9.58293 11.23 9.58293 10.6107ZM9.08452 10.6107C9.08452 10.2666 8.80559 9.98766 8.46151 9.98766C8.11743 9.98766 7.8385 10.2666 7.8385 10.6107C7.8385 10.9547 8.11743 11.2337 8.46151 11.2337C8.80559 11.2337 9.08452 10.9547 9.08452 10.6107ZM9.33372 10.6107C9.33372 11.0924 8.94322 11.4829 8.46151 11.4829C7.9798 11.4829 7.5893 11.0924 7.5893 10.6107C7.5893 10.129 7.9798 9.73846 8.46151 9.73846C8.94322 9.73846 9.33372 10.129 9.33372 10.6107ZM9.83213 10.6107C9.83213 11.3676 9.21848 11.9813 8.46151 11.9813C7.70454 11.9813 7.09089 11.3676 7.09089 10.6107C7.09089 9.8537 7.70454 9.24005 8.46151 9.24005C9.21848 9.24005 9.83213 9.8537 9.83213 10.6107Z" fill="#0171FC"/>
<path d="M17.8067 10.6107C17.8067 10.129 17.4161 9.73846 16.9344 9.73846C16.4527 9.73846 16.0622 10.129 16.0622 10.6107C16.0622 11.0924 16.4527 11.4829 16.9344 11.4829C17.4161 11.4829 17.8067 11.0924 17.8067 10.6107ZM18.0559 10.6107C18.0559 11.23 17.5538 11.7321 16.9344 11.7321C16.3151 11.7321 15.813 11.23 15.813 10.6107C15.813 9.99133 16.3151 9.48925 16.9344 9.48925C17.5538 9.48925 18.0559 9.99133 18.0559 10.6107Z" fill="#0171FC"/>
<path d="M18.0559 10.6107C18.0559 9.99133 17.5538 9.48925 16.9344 9.48925C16.3151 9.48925 15.813 9.99133 15.813 10.6107C15.813 11.23 16.3151 11.7321 16.9344 11.7321C17.5538 11.7321 18.0559 11.23 18.0559 10.6107ZM17.5574 10.6107C17.5574 10.2666 17.2785 9.98766 16.9344 9.98766C16.5904 9.98766 16.3114 10.2666 16.3114 10.6107C16.3114 10.9547 16.5904 11.2337 16.9344 11.2337C17.2785 11.2337 17.5574 10.9547 17.5574 10.6107ZM17.8067 10.6107C17.8067 11.0924 17.4161 11.4829 16.9344 11.4829C16.4527 11.4829 16.0622 11.0924 16.0622 10.6107C16.0622 10.129 16.4527 9.73846 16.9344 9.73846C17.4161 9.73846 17.8067 10.129 17.8067 10.6107ZM18.3051 10.6107C18.3051 11.3676 17.6914 11.9813 16.9344 11.9813C16.1775 11.9813 15.5638 11.3676 15.5638 10.6107C15.5638 9.8537 16.1775 9.24005 16.9344 9.24005C17.6914 9.24005 18.3051 9.8537 18.3051 10.6107Z" fill="#0171FC"/>
<path d="M17.6821 17.713C17.6821 17.5065 17.5147 17.3392 17.3082 17.3392C17.1018 17.3392 16.9344 17.5065 16.9344 17.713C16.9344 17.9194 17.1018 18.0868 17.3082 18.0868C17.5147 18.0868 17.6821 17.9194 17.6821 17.713ZM17.9313 17.713C17.9313 18.0571 17.6523 18.336 17.3082 18.336C16.9642 18.336 16.6852 18.0571 16.6852 17.713C16.6852 17.3689 16.9642 17.09 17.3082 17.09C17.6523 17.09 17.9313 17.3689 17.9313 17.713Z" fill="white"/>
<path d="M17.9313 17.713C17.9313 17.3689 17.6523 17.09 17.3082 17.09C16.9642 17.09 16.6852 17.3689 16.6852 17.713C16.6852 18.0571 16.9642 18.336 17.3082 18.336C17.6523 18.336 17.9313 18.0571 17.9313 17.713ZM17.4328 17.713C17.4328 17.6442 17.3771 17.5884 17.3082 17.5884C17.2394 17.5884 17.1836 17.6442 17.1836 17.713C17.1836 17.7818 17.2394 17.8376 17.3082 17.8376C17.3771 17.8376 17.4328 17.7818 17.4328 17.713ZM17.6821 17.713C17.6821 17.9194 17.5147 18.0868 17.3082 18.0868C17.1018 18.0868 16.9344 17.9194 16.9344 17.713C16.9344 17.5065 17.1018 17.3392 17.3082 17.3392C17.5147 17.3392 17.6821 17.5065 17.6821 17.713ZM18.1805 17.713C18.1805 18.1947 17.79 18.5852 17.3082 18.5852C16.8265 18.5852 16.436 18.1947 16.436 17.713C16.436 17.2313 16.8265 16.8408 17.3082 16.8408C17.79 16.8408 18.1805 17.2313 18.1805 17.713Z" fill="white"/>
<path d="M26.4042 24.3169C26.4042 23.8352 26.0137 23.4447 25.532 23.4447C25.0503 23.4447 24.6598 23.8352 24.6598 24.3169C24.6598 24.7986 25.0503 25.1891 25.532 25.1891C26.0137 25.1891 26.4042 24.7986 26.4042 24.3169ZM26.6534 24.3169C26.6534 24.9362 26.1513 25.4383 25.532 25.4383C24.9126 25.4383 24.4106 24.9362 24.4106 24.3169C24.4106 23.6975 24.9126 23.1955 25.532 23.1955C26.1513 23.1955 26.6534 23.6975 26.6534 24.3169Z" fill="#0171FC"/>
<path d="M26.6534 24.3169C26.6534 23.6975 26.1513 23.1955 25.532 23.1955C24.9126 23.1955 24.4106 23.6975 24.4106 24.3169C24.4106 24.9362 24.9126 25.4383 25.532 25.4383C26.1513 25.4383 26.6534 24.9362 26.6534 24.3169ZM26.155 24.3169C26.155 23.9728 25.876 23.6939 25.532 23.6939C25.1879 23.6939 24.909 23.9728 24.909 24.3169C24.909 24.661 25.1879 24.9399 25.532 24.9399C25.876 24.9399 26.155 24.661 26.155 24.3169ZM26.4042 24.3169C26.4042 24.7986 26.0137 25.1891 25.532 25.1891C25.0503 25.1891 24.6598 24.7986 24.6598 24.3169C24.6598 23.8352 25.0503 23.4447 25.532 23.4447C26.0137 23.4447 26.4042 23.8352 26.4042 24.3169ZM26.9026 24.3169C26.9026 25.0739 26.2889 25.6875 25.532 25.6875C24.775 25.6875 24.1614 25.0739 24.1614 24.3169C24.1614 23.5599 24.775 22.9463 25.532 22.9463C26.2889 22.9463 26.9026 23.5599 26.9026 24.3169Z" fill="#0171FC"/>
<path d="M8.46151 8.24323C8.46151 7.48626 7.84786 6.87261 7.09089 6.87261C6.33392 6.87261 5.72027 7.48626 5.72027 8.24323C5.72027 9.00021 6.33392 9.61385 7.09089 9.61385C7.84786 9.61385 8.46151 9.00021 8.46151 8.24323ZM8.95992 8.24323C8.95992 9.27547 8.12312 10.1123 7.09089 10.1123C6.05865 10.1123 5.22186 9.27547 5.22186 8.24323C5.22186 7.211 6.05865 6.3742 7.09089 6.3742C8.12312 6.3742 8.95992 7.211 8.95992 8.24323Z" fill="white"/>
<path d="M8.95992 8.24323C8.95992 7.211 8.12312 6.3742 7.09089 6.3742C6.05865 6.3742 5.22186 7.211 5.22186 8.24323C5.22186 9.27547 6.05865 10.1123 7.09089 10.1123C8.12312 10.1123 8.95992 9.27547 8.95992 8.24323ZM8.21231 8.24323C8.21231 7.62389 7.71023 7.12182 7.09089 7.12182C6.47155 7.12182 5.96947 7.62389 5.96947 8.24323C5.96947 8.86257 6.47155 9.36465 7.09089 9.36465V9.61385C6.33392 9.61385 5.72027 9.00021 5.72027 8.24323C5.72027 7.48626 6.33392 6.87261 7.09089 6.87261C7.84786 6.87261 8.46151 7.48626 8.46151 8.24323C8.46151 9.00021 7.84786 9.61385 7.09089 9.61385V9.36465C7.71023 9.36465 8.21231 8.86257 8.21231 8.24323ZM9.20912 8.24323C9.20912 9.4131 8.26076 10.3615 7.09089 10.3615C5.92102 10.3615 4.97266 9.4131 4.97266 8.24323C4.97266 7.07336 5.92102 6.125 7.09089 6.125C8.26076 6.125 9.20912 7.07336 9.20912 8.24323Z" fill="white"/>
<path d="M8.46151 18.4606C8.46151 17.9789 8.07101 17.5884 7.5893 17.5884C7.10759 17.5884 6.71708 17.9789 6.71708 18.4606C6.71708 18.9423 7.10759 19.3328 7.5893 19.3328C8.07101 19.3328 8.46151 18.9423 8.46151 18.4606ZM8.71071 18.4606C8.71071 19.0799 8.20864 19.582 7.5893 19.582C6.96995 19.582 6.46788 19.0799 6.46788 18.4606C6.46788 17.8412 6.96995 17.3392 7.5893 17.3392C8.20864 17.3392 8.71071 17.8412 8.71071 18.4606Z" fill="white"/>
<path d="M8.71071 18.4606C8.71071 17.8412 8.20864 17.3392 7.5893 17.3392C6.96995 17.3392 6.46788 17.8412 6.46788 18.4606C6.46788 19.0799 6.96995 19.582 7.5893 19.582C8.20864 19.582 8.71071 19.0799 8.71071 18.4606ZM8.21231 18.4606C8.21231 18.1165 7.93337 17.8376 7.5893 17.8376C7.24522 17.8376 6.96629 18.1165 6.96629 18.4606C6.96629 18.8047 7.24522 19.0836 7.5893 19.0836C7.93337 19.0836 8.21231 18.8047 8.21231 18.4606ZM8.46151 18.4606C8.46151 18.9423 8.07101 19.3328 7.5893 19.3328C7.10759 19.3328 6.71708 18.9423 6.71708 18.4606C6.71708 17.9789 7.10759 17.5884 7.5893 17.5884C8.07101 17.5884 8.46151 17.9789 8.46151 18.4606ZM8.95992 18.4606C8.95992 19.2176 8.34627 19.8312 7.5893 19.8312C6.83232 19.8312 6.21868 19.2176 6.21868 18.4606C6.21868 17.7036 6.83232 17.09 7.5893 17.09C8.34627 17.09 8.95992 17.7036 8.95992 18.4606Z" fill="white"/>
<path d="M16.8223 18.0241L8.46599 18.5848L8.44097 18.2119L16.7973 17.651L16.8223 18.0241Z" fill="white"/>
<path d="M16.955 18.14L8.35004 18.7175L8.30831 18.0959L16.9132 17.5184L16.955 18.14ZM8.57363 18.3278L8.58192 18.452L16.6895 17.908L16.6812 17.7837L8.57363 18.3278Z" fill="white"/>
</svg>
